<svg xmlns="http://www.w3.org/2000/svg" viewBox="0 0 32 32">
  <path d="M13 7C12.113281 7 11.300781 7.382813 10.75 8C9.484375 8.097656 8.554688 8.886719 7.65625 9.65625L7.3125 9.96875C6.589844 10.574219 4.417969 12.378906 3 13.5625L3 16.15625C3.234375 15.960938 7.515625 12.402344 8.59375 11.5L8.96875 11.1875C9.378906 10.835938 9.695313 10.574219 10 10.375L10 17.09375C9.625 17.300781 8.90625 17.6875 8.90625 17.6875L9.84375 19.4375C9.84375 19.4375 13.671875 17.335938 14.125 17.09375C15.195313 16.515625 15.851563 16 16.84375 16C17.496094 16 18 16.519531 18 17.28125C18 17.730469 17.902344 17.898438 17.71875 18.125C17.535156 18.351563 17.210938 18.617188 16.75 18.90625C15.664063 19.585938 14.46875 20.75 14.46875 20.75L14.40625 20.84375L14.34375 20.90625C13.183594 22.597656 11.691406 24 9.03125 24L3 24L3 26L9.03125 26C12.34375 26 14.507813 24.117188 15.875 22.1875C15.875 22.1875 16.597656 21.515625 17.25 21L26 21C27.648438 21 29 19.648438 29 18L29 10C29 8.351563 27.648438 7 26 7 Z M 13 9L26 9C26.5625 9 27 9.4375 27 10L27 11L13 11L13 13L27 13L27 18C27 18.5625 26.5625 19 26 19L19.5625 19C19.839844 18.515625 20 17.929688 20 17.28125C20 15.507813 18.609375 14 16.84375 14C15.148438 14 14.007813 14.882813 13.15625 15.34375C13.019531 15.417969 12.472656 15.707031 12 15.96875L12 10C12 9.4375 12.4375 9 13 9Z" fill="#FFFFFF" />
</svg>