<svg xmlns="http://www.w3.org/2000/svg" viewBox="0 0 30 30">
  <path d="M9.5 3C7.719 3 6.2659219 4.3346875 6.0449219 6.0546875C5.8659219 6.0266875 5.687 6 5.5 6C3.567 6 2 7.567 2 9.5C2 9.971 2.0956719 10.418125 2.2636719 10.828125C1.4976719 11.470125 1 12.422 1 13.5C1 14.756 1.6661562 15.849797 2.6601562 16.466797C2.2481563 17.040797 2 17.739 2 18.5C2 20.433 3.567 22 5.5 22C5.775 22 6.039875 21.960391 6.296875 21.900391C6.333875 21.985391 6.3847344 22.061578 6.4277344 22.142578C6.4247344 22.144578 6.4121094 22.150391 6.4121094 22.150391C6.4121094 22.150391 8 26 6 29L10 29C10 29 10.002891 24.586094 13.962891 23.996094C13.975891 23.996094 13.987 24 14 24C15.586 24 16.944797 23.070422 17.591797 21.732422C18.031797 21.898422 18.502 22 19 22C20.924 22 22.527156 20.640078 22.910156 18.830078C23.258156 18.929078 23.62 19 24 19C26.209 19 28 17.209 28 15C28 14.459 27.890312 13.943656 27.695312 13.472656C28.482312 12.931656 29 12.027 29 11C29 9.644 28.094375 8.512625 26.859375 8.140625C26.487375 6.905625 25.356 6 24 6C23.909 6 23.821422 6.0193438 23.732422 6.0273438C23.119422 4.2693437 21.466 3 19.5 3C18.575 3 17.715 3.2807656 17 3.7597656C16.285 3.2807656 15.425 3 14.5 3C13.493 3 12.574219 3.3413906 11.824219 3.9003906C11.205219 3.3463906 10.396 3 9.5 3 z M 13.638672 6L14.361328 6C14.488328 6 14.595375 6.0956563 14.609375 6.2226562L14.638672 6.4785156C14.674672 6.8055156 14.920188 7.0648125 15.242188 7.1328125C15.451187 7.1768125 15.658375 7.231875 15.859375 7.296875C16.172375 7.397875 16.513984 7.2982031 16.708984 7.0332031L16.861328 6.8261719C16.936328 6.7231719 17.0775 6.6957656 17.1875 6.7597656L17.8125 7.1191406C17.9225 7.1831406 17.968969 7.3205 17.917969 7.4375L17.810547 7.6777344C17.678547 7.9787344 17.763813 8.3249219 18.007812 8.5449219C18.164813 8.6869219 18.313078 8.8361406 18.455078 8.9941406C18.675078 9.2381406 19.023219 9.3214531 19.324219 9.1894531L19.564453 9.0839844C19.681453 9.0329844 19.816859 9.0775 19.880859 9.1875L20.242188 9.8144531C20.306188 9.9244531 20.275828 10.065625 20.173828 10.140625L19.96875 10.292969C19.70375 10.487969 19.602125 10.829578 19.703125 11.142578C19.768125 11.343578 19.823187 11.547812 19.867188 11.757812C19.935188 12.079812 20.193484 12.327281 20.521484 12.363281L20.777344 12.390625C20.903344 12.403625 21 12.510672 21 12.638672L21 13.361328C21 13.488328 20.904344 13.595375 20.777344 13.609375C20.702344 13.617375 20.614484 13.626719 20.521484 13.636719C20.194484 13.672719 19.934187 13.920188 19.867188 14.242188C19.823187 14.451187 19.768125 14.656422 19.703125 14.857422C19.602125 15.170422 19.70375 15.512031 19.96875 15.707031L20.173828 15.859375C20.276828 15.934375 20.306188 16.075547 20.242188 16.185547L19.880859 16.8125C19.816859 16.9225 19.681453 16.967016 19.564453 16.916016L19.324219 16.810547C19.023219 16.678547 18.675078 16.761859 18.455078 17.005859C18.313078 17.162859 18.165812 17.313078 18.007812 17.455078C17.763813 17.675078 17.678547 18.021266 17.810547 18.322266L17.916016 18.5625C17.967016 18.6795 17.9225 18.816859 17.8125 18.880859L17.185547 19.240234C17.075547 19.304234 16.934375 19.275828 16.859375 19.173828L16.708984 18.966797C16.513984 18.701797 16.172375 18.601125 15.859375 18.703125C15.658375 18.768125 15.452188 18.823188 15.242188 18.867188C14.920188 18.935188 14.674672 19.193484 14.638672 19.521484L14.609375 19.777344C14.595375 19.904344 14.489328 20 14.361328 20L13.638672 20C13.511672 20 13.404625 19.904344 13.390625 19.777344L13.361328 19.521484C13.325328 19.194484 13.079812 18.935187 12.757812 18.867188C12.548813 18.823187 12.341625 18.768125 12.140625 18.703125C11.827625 18.602125 11.486016 18.701797 11.291016 18.966797L11.140625 19.173828C11.065625 19.276828 10.924453 19.304234 10.814453 19.240234L10.1875 18.880859C10.0775 18.816859 10.032984 18.6795 10.083984 18.5625L10.189453 18.322266C10.321453 18.021266 10.236188 17.675078 9.9921875 17.455078C9.8351875 17.313078 9.6869219 17.163859 9.5449219 17.005859C9.3249219 16.761859 8.9767812 16.678547 8.6757812 16.810547L8.4355469 16.916016C8.3185469 16.967016 8.1831406 16.9225 8.1191406 16.8125L7.7578125 16.185547C7.6938125 16.075547 7.7241719 15.934375 7.8261719 15.859375L8.03125 15.707031C8.29625 15.512031 8.397875 15.170422 8.296875 14.857422C8.231875 14.656422 8.1768125 14.452187 8.1328125 14.242188C8.0648125 13.920188 7.8065156 13.672719 7.4785156 13.636719L7.2226562 13.609375C7.0956563 13.595375 7 13.489328 7 13.361328L7 12.638672C7 12.511672 7.0946719 12.405719 7.2636719 12.386719L7.4785156 12.361328C7.8055156 12.325328 8.0658125 12.078859 8.1328125 11.755859C8.1768125 11.546859 8.231875 11.341625 8.296875 11.140625C8.397875 10.827625 8.29625 10.484063 8.03125 10.289062L7.8261719 10.138672C7.7231719 10.062672 7.6938125 9.9225 7.7578125 9.8125L8.1191406 9.1855469C8.1831406 9.0755469 8.3185469 9.0310313 8.4355469 9.0820312L8.6757812 9.1875C8.9767813 9.3195 9.3249219 9.2361875 9.5449219 8.9921875C9.6869219 8.8351875 9.8341875 8.6849688 9.9921875 8.5429688C10.236187 8.3229687 10.321453 7.9767812 10.189453 7.6757812L10.082031 7.4355469C10.031031 7.3185469 10.0775 7.1811875 10.1875 7.1171875L10.8125 6.7578125C10.9225 6.6938125 11.063672 6.7222187 11.138672 6.8242188L11.291016 7.03125C11.486016 7.29625 11.827625 7.3959219 12.140625 7.2949219C12.341625 7.2299219 12.547812 7.1748594 12.757812 7.1308594C13.079812 7.0638594 13.325328 6.8045625 13.361328 6.4765625L13.390625 6.2207031C13.404625 6.0957031 13.510672 6 13.638672 6 z M 14 9C11.791 9 10 10.791 10 13C10 15.209 11.791 17 14 17C16.209 17 18 15.209 18 13C18 10.791 16.209 9 14 9 z M 14 11C15.105 11 16 11.895 16 13C16 14.104 15.105 15 14 15C12.895 15 12 14.104 12 13C12 11.895 12.895 11 14 11 z" fill="#FBFBFB" />
</svg>