<svg xmlns="http://www.w3.org/2000/svg" viewBox="0 0 32 32">
  <path d="M6 3L6 29L21.132812 29L19.132812 27L8 27L8 5L18 5L18 11L24 11L24 18L26 18L26 9.5859375L19.414062 3L6 3 z M 20 6.4140625L22.585938 9L20 9L20 6.4140625 z M 15.302734 12.001953C14.543734 11.974953 13.997891 12.407 13.837891 13.125C13.633891 14.039 14.1165 15.698625 14.9375 17.390625C14.9105 17.484625 14.881562 17.579734 14.851562 17.677734C14.534563 18.723734 14.162203 19.676094 13.783203 20.496094C12.483203 20.906094 11.361234 21.421844 10.740234 21.964844C9.9132344 22.685844 9.7584063 23.559156 10.316406 24.285156C10.655406 24.752156 11.123859 25 11.630859 25C11.830859 25 12.037094 24.960812 12.246094 24.882812C13.136094 24.545813 14.095922 23.268344 14.919922 21.652344C15.733922 21.435344 16.592719 21.267203 17.386719 21.158203C18.065719 21.924203 18.764203 22.497609 19.408203 22.724609C20.335203 23.050609 21.199656 22.757359 21.722656 21.943359L21.728516 21.933594C22.242516 21.102594 21.912594 20.440656 21.433594 20.097656C20.802594 19.645656 19.539125 19.530531 18.078125 19.644531C17.538125 18.926531 17.022938 18.073563 16.585938 17.226562C16.969938 15.730562 17.130406 14.359281 16.941406 13.488281C16.651406 12.148281 15.681688 12.001953 15.304688 12.001953L15.302734 12.001953 z M 15.339844 13.552734C15.407844 13.711734 15.459125 14.006266 15.453125 14.447266C15.357125 14.075266 15.315844 13.766734 15.339844 13.552734 z M 15.960938 19.232422C16.095937 19.448422 16.236906 19.658281 16.378906 19.863281C16.141906 19.905281 15.901063 19.953906 15.664062 20.003906C15.767063 19.748906 15.866938 19.490422 15.960938 19.232422 z M 26.029297 20L26.029297 27L22.029297 27L27.029297 32L32.029297 27L28.029297 27L28.029297 20L26.029297 20 z M 19.365234 21.017578C19.829234 21.026578 20.186813 21.079688 20.382812 21.179688C20.376812 21.190687 20.369328 21.202797 20.361328 21.216797C20.235328 21.412797 20.180312 21.493547 19.820312 21.310547C19.671312 21.235547 19.519234 21.136578 19.365234 21.017578 z M 12.730469 22.435547C12.288469 23.117547 11.912078 23.523266 11.705078 23.572266C11.704078 23.571266 11.675234 23.552703 11.615234 23.470703C11.563234 23.402703 11.475672 23.290031 11.888672 22.957031C12.116672 22.772031 12.402469 22.598547 12.730469 22.435547 z" fill="#FFFFFF" />
</svg>