<svg xmlns="http://www.w3.org/2000/svg" viewBox="0 0 48 48">
  <path d="M35.998047 4 A 4 4 0 0 0 35.998047 12 A 4 4 0 0 0 35.998047 4 z M 23.470703 9.9863281 A 1.50015 1.50015 0 0 0 23.308594 10L15.5 10 A 1.50015 1.50015 0 1 0 15.5 13L19.878906 13L6.4394531 26.439453 A 1.50015 1.50015 0 1 0 8.5605469 28.560547L22 15.121094L22 19.5 A 1.50015 1.50015 0 1 0 25 19.5L25 11.689453 A 1.50015 1.50015 0 0 0 23.470703 9.9863281 z M 36 14C32.687 14 30 16.686 30 20L30 31C30 31.651221 30.417493 32.20102 30.998047 32.408203L30.998047 42.5 A 1.50015 1.50015 0 1 0 33.998047 42.5L33.998047 32L37.998047 32L37.998047 42.5 A 1.50015 1.50015 0 1 0 40.998047 42.5L40.998047 32.408203C41.580441 32.202009 42 31.652536 42 31L42 20C42 16.686 39.314 14 36 14 z M 23.476562 24.978516 A 1.50015 1.50015 0 0 0 22 26.5L22 42.5 A 1.50015 1.50015 0 1 0 25 42.5L25 26.5 A 1.50015 1.50015 0 0 0 23.476562 24.978516 z M 15.476562 32.978516 A 1.50015 1.50015 0 0 0 14 34.5L14 42.5 A 1.50015 1.50015 0 1 0 17 42.5L17 34.5 A 1.50015 1.50015 0 0 0 15.476562 32.978516 z M 7.4765625 39.978516 A 1.50015 1.50015 0 0 0 6 41.5L6 42.5 A 1.50015 1.50015 0 1 0 9 42.5L9 41.5 A 1.50015 1.50015 0 0 0 7.4765625 39.978516 z" fill="#FBFBFB" />
</svg>