<svg xmlns="http://www.w3.org/2000/svg" viewBox="0 0 50 50">
  <path d="M26.609375 2C25.945313 2 25.304688 2.28125 24.855469 2.765625L12 16L12 34L24.855469 47.234375C25.304688 47.722656 25.945313 48 26.609375 48C27.925781 48 29 46.925781 29 45.609375L29 4.390625C29 3.074219 27.925781 2 26.609375 2 Z M 39.695313 10.421875L38.574219 12.074219C43.007813 14.679688 46 19.492188 46 25C46 30.507813 43.007813 35.320313 38.574219 37.925781L39.695313 39.578125C44.660156 36.609375 48 31.195313 48 25C48 18.804688 44.660156 13.390625 39.695313 10.421875 Z M 36.324219 15.378906L35.191406 17.042969C38.046875 18.554688 40 21.550781 40 25C40 28.449219 38.046875 31.445313 35.191406 32.957031L36.324219 34.621094C39.707031 32.738281 42 29.136719 42 25C42 20.863281 39.707031 17.261719 36.324219 15.378906 Z M 5 16C3.347656 16 2 17.347656 2 19L2 31C2 32.652344 3.347656 34 5 34L10 34L10 16 Z M 32.921875 20.386719L31.753906 22.109375C33.042969 22.445313 34 23.605469 34 25C34 26.394531 33.042969 27.554688 31.753906 27.890625L32.921875 29.613281C34.726563 28.855469 36 27.074219 36 25C36 22.925781 34.726563 21.140625 32.921875 20.386719Z" fill="#FBFBFB" />
</svg>