<svg xmlns="http://www.w3.org/2000/svg" viewBox="0 0 24 24">
  <path d="M18.414062 2C18.158188 2 17.902031 2.0974687 17.707031 2.2929688L16 4L20 8L21.707031 6.2929688C22.098031 5.9019687 22.098031 5.2689063 21.707031 4.8789062L19.121094 2.2929688C18.925594 2.0974687 18.669937 2 18.414062 2 z M 14.5 5.5L5 15C5 15 6.005 15.005 6.5 15.5C6.995 15.995 6.984375 16.984375 6.984375 16.984375C6.984375 16.984375 8.004 17.004 8.5 17.5C8.996 17.996 9 19 9 19L18.5 9.5L14.5 5.5 z M 3.6699219 17L3 21L7 20.330078L3.6699219 17 z" fill="#FBFBFB" />
</svg>