<svg xmlns="http://www.w3.org/2000/svg" viewBox="0 0 48 48">
  <path d="M14.476562 1.9785156 A 1.50015 1.50015 0 0 0 13 3.5L13 8.2539062 A 1.50015 1.50015 0 0 0 13 8.7402344L13 12.5C13 14.414955 14.585045 16 16.5 16L31.5 16C33.414955 16 35 14.414955 35 12.5L35 8.7460938 A 1.50015 1.50015 0 0 0 35 8.2597656L35 3.5 A 1.50015 1.50015 0 1 0 32 3.5L32 7L28 7L28 3.5 A 1.50015 1.50015 0 0 0 26.5 2L21.5 2 A 1.50015 1.50015 0 0 0 20 3.5L20 7L16 7L16 3.5 A 1.50015 1.50015 0 0 0 14.476562 1.9785156 z M 19 18L19 22C18.462 26.34 15.869094 29.05875 14.121094 30.59375C12.586094 31.94075 11 33.334 11 36C11 37.068 11.352703 38.116 11.970703 39L14.005859 39L34.027344 39L36.050781 39C36.653781 38.122 36.996094 37.075 36.996094 36C36.998094 33.334 35.411953 31.94075 33.876953 30.59375C32.128953 29.05875 29.538 26.34 29 22L29 18L19 18 z M 12.5 41C11.119 41 10 42.119 10 43.5C10 44.881 11.119 46 12.5 46L35.5 46C36.881 46 38 44.881 38 43.5C38 42.119 36.881 41 35.5 41L12.5 41 z" fill="#FBFBFB" />
</svg>