<svg xmlns="http://www.w3.org/2000/svg" viewBox="0 0 50 50"><path d="M25 2C12.309295 2 2 12.309295 2 25C2 37.690705 12.309295 48 25 48C37.690705 48 48 37.690705 48 25C48 12.309295 37.690705 2 25 2 z M 25 4C36.609824 4 46 13.390176 46 25C46 36.609824 36.609824 46 25 46C13.390176 46 4 36.609824 4 25C4 13.390176 13.390176 4 25 4 z M 25 11C21.67619 11 19 13.67619 19 17L19 20L18 20C16.354545 20 15 21.354545 15 23L15 33C15 34.645455 16.354545 36 18 36L32 36C33.645455 36 35 34.645455 35 33L35 23C35 21.354545 33.645455 20 32 20L31 20L31 17C31 13.67619 28.32381 11 25 11 z M 25 13C27.27619 13 29 14.72381 29 17L29 20L21 20L21 17C21 14.72381 22.72381 13 25 13 z M 18 22L19.832031 22 A 1.0001 1.0001 0 0 0 20.158203 22L29.832031 22 A 1.0001 1.0001 0 0 0 30.158203 22L32 22C32.554545 22 33 22.445455 33 23L33 33C33 33.554545 32.554545 34 32 34L18 34C17.445455 34 17 33.554545 17 33L17 23C17 22.445455 17.445455 22 18 22 z M 25 25 A 2 2 0 0 0 23 27 A 2 2 0 0 0 24 28.730469L24 30C24 30.6 24.4 31 25 31C25.6 31 26 30.6 26 30L26 28.728516 A 2 2 0 0 0 27 27 A 2 2 0 0 0 25 25 z"/></svg>