<svg xmlns="http://www.w3.org/2000/svg" viewBox="0 0 32 32">
  <path d="M3 3L3 19L6 19L6 17L5 17L5 5L17 5L17 13L13 13C12.636719 13 12.277344 12.867188 11.9375 12.6875C12.117188 12.492188 12.289063 12.289063 12.4375 12.09375C13.082031 11.25 13.429688 10.53125 13.65625 10L15 10L15 8L12 8L12 7L10 7L10 8L7 8L7 10L11.4375 10C11.28125 10.269531 11.09375 10.582031 10.84375 10.90625C10.71875 11.066406 10.578125 11.222656 10.4375 11.375C10.074219 10.910156 9.875 10.53125 9.875 10.53125L8.125 11.46875C8.125 11.46875 8.375 11.976563 8.84375 12.59375C8.308594 12.84375 7.703125 13 7 13L7 15C8.300781 15 9.398438 14.597656 10.3125 14.03125C11.03125 14.566406 11.917969 15 13 15L13 17L11 17L11 19L13 19L13 21L15 21L15 15L27 15L27 27L15 27L15 26L13 26L13 29L29 29L29 13L19 13L19 3 Z M 8.46875 16L7 17L7 22L10 25L15 25L16 23.46875L15 22L10 22L10 17 Z M 20.21875 17L20 17.6875L18.0625 23.6875L18 23.84375L18 25L20 25L20 24.125L20.03125 24L21.96875 24L22 24.125L22 25L24 25L24 23.84375L23.9375 23.6875L22 17.6875L21.78125 17 Z M 21 21.0625L21.3125 22L20.6875 22Z" fill="#9800FF" />
</svg>