<svg xmlns="http://www.w3.org/2000/svg" viewBox="0 0 32 32">
  <path d="M16 2.7988281L3 11.464844L3 29L25.027344 29C24.334344 28.484 23.772875 27.802 23.421875 27L5 27L5 14L16 22.25L27 14L27 15L29 15L29 11.464844L16 2.7988281 z M 16 5.2011719L26.269531 12.046875L16 19.75L5.7304688 12.046875L16 5.2011719 z M 27 17L27 18.189453C26.855 18.241953 26.714063 18.306113 26.580078 18.378906C26.446094 18.451699 26.318203 18.533828 26.197266 18.625C26.076328 18.716172 25.963281 18.816191 25.857422 18.923828C25.645703 19.139102 25.465391 19.384648 25.326172 19.654297C25.256563 19.789121 25.196875 19.930625 25.148438 20.076172C25.051562 20.367266 25 20.6775 25 21C25 21.205 25.022109 21.405469 25.0625 21.599609C25.143281 21.987891 25.300547 22.350391 25.517578 22.669922C25.626094 22.829687 25.748516 22.978984 25.884766 23.115234C26.157266 23.387734 26.481719 23.608594 26.839844 23.761719C27.197969 23.914844 27.59 24 28 24C28.1425 24 28.276016 24.026953 28.396484 24.076172C28.516953 24.125391 28.623516 24.197734 28.712891 24.287109C28.802266 24.376484 28.874609 24.483047 28.923828 24.603516C28.973047 24.723984 29 24.8575 29 25C29 25.4275 28.757891 25.776172 28.396484 25.923828C28.276016 25.973047 28.1425 26 28 26C27.8575 26 27.723984 25.973047 27.603516 25.923828C27.483047 25.874609 27.376484 25.802266 27.287109 25.712891C27.108359 25.534141 27 25.285 27 25L25 25C25 25.16125 25.013828 25.320254 25.039062 25.474609C25.064297 25.628965 25.1 25.778281 25.148438 25.923828C25.196875 26.069375 25.256563 26.210879 25.326172 26.345703C25.395781 26.480527 25.475703 26.608281 25.564453 26.730469C25.653203 26.852656 25.751562 26.968535 25.857422 27.076172C25.963281 27.183809 26.076328 27.283828 26.197266 27.375C26.318203 27.466172 26.446094 27.548301 26.580078 27.621094C26.714063 27.693887 26.855 27.758047 27 27.810547L27 29L29 29L29 27.810547C30.015 27.443047 30.784297 26.555098 30.960938 25.474609C30.986172 25.320254 31 25.16125 31 25C31 24.795 30.977891 24.594531 30.9375 24.400391C30.897109 24.20625 30.838281 24.018906 30.761719 23.839844C30.685156 23.660781 30.590937 23.489844 30.482422 23.330078C30.373906 23.170313 30.251484 23.021016 30.115234 22.884766C29.978984 22.748516 29.829687 22.626094 29.669922 22.517578C29.510156 22.409063 29.339219 22.314844 29.160156 22.238281C28.981094 22.161719 28.79375 22.102891 28.599609 22.0625C28.405469 22.022109 28.205 22 28 22C27.8575 22 27.723984 21.973047 27.603516 21.923828C27.483047 21.874609 27.376484 21.802266 27.287109 21.712891C27.197734 21.623516 27.125391 21.516953 27.076172 21.396484C27.026953 21.276016 27 21.1425 27 21C27 20.8575 27.026953 20.723984 27.076172 20.603516C27.125391 20.483047 27.197734 20.376484 27.287109 20.287109C27.376484 20.197734 27.483047 20.125391 27.603516 20.076172C27.723984 20.026953 27.8575 20 28 20C28.57 20 29 20.43 29 21L31 21C31 20.83875 30.986172 20.679746 30.960938 20.525391C30.935703 20.371035 30.9 20.221719 30.851562 20.076172C30.560938 19.202891 29.87 18.504453 29 18.189453L29 17L27 17 z" fill="#FBFBFB" />
</svg>