<svg xmlns="http://www.w3.org/2000/svg" viewBox="0 0 32 32"><path d="M6 5C3.8026661 5 2 6.8026661 2 9L2 24C2 25.64497 3.3550302 27 5 27L10 27L10 17.03125L16 21.552734L22 17.03125L22 27L27 27C28.64497 27 30 25.64497 30 24L30 9C30 6.8026661 28.197334 5 26 5C25.103127 5 24.263145 5.2976622 23.591797 5.7988281L23.589844 5.8007812L16 11.517578L8.4121094 5.8007812L8.4121094 5.8027344C7.7382078 5.2939553 6.8953058 5 6 5 z M 6 7C6.4606942 7 6.876933 7.1492198 7.2070312 7.3984375L8 7.9960938L8 13.019531L4 10.005859L4 9C4 7.8833339 4.8833339 7 6 7 z M 26 7C27.116666 7 28 7.8833339 28 9L28 10.003906L24 13.017578L24 7.9941406L24.789062 7.4003906C25.119715 7.1535565 25.550873 7 26 7 z M 10 9.5019531L16 14.021484L22 9.5019531L22 14.525391L16 19.046875L10 14.525391L10 9.5019531 z M 4 12.507812L8 15.523438L8 25L5 25C4.4349698 25 4 24.56503 4 24L4 12.507812 z M 28 12.507812L28 24C28 24.56503 27.56503 25 27 25L24 25L24 15.523438L28 12.507812 z"/></svg>