<svg xmlns="http://www.w3.org/2000/svg" viewBox="0 0 16 16"><path d="M7.5 1C3.917969 1 1 3.917969 1 7.5C1 11.082031 3.917969 14 7.5 14C11.082031 14 14 11.082031 14 7.5C14 3.917969 11.082031 1 7.5 1 Z M 7.5 2C10.542969 2 13 4.457031 13 7.5C13 10.542969 10.542969 13 7.5 13C4.457031 13 2 10.542969 2 7.5C2 4.457031 4.457031 2 7.5 2 Z M 5 5.023438C4.449219 5.023438 4 5.46875 4 6.023438C4 6.574219 4.449219 7.023438 5 7.023438C5.550781 7.023438 6 6.574219 6 6.023438C6 5.46875 5.550781 5.023438 5 5.023438 Z M 10 5.023438C9.449219 5.023438 9 5.46875 9 6.023438C9 6.574219 9.449219 7.023438 10 7.023438C10.550781 7.023438 11 6.574219 11 6.023438C11 5.46875 10.550781 5.023438 10 5.023438 Z M 9.53125 8.945313C9.53125 8.945313 9.449219 9.179688 9.148438 9.453125C8.84375 9.730469 8.359375 10.019531 7.5 10.019531C6.605469 10.019531 6.125 9.730469 5.835938 9.460938C5.542969 9.1875 5.472656 8.960938 5.472656 8.960938L4.527344 9.289063C4.527344 9.289063 4.695313 9.761719 5.148438 10.1875C5.605469 10.613281 6.375 11.019531 7.5 11.019531C8.597656 11.019531 9.363281 10.613281 9.820313 10.191406C10.28125 9.769531 10.46875 9.304688 10.46875 9.304688Z"/></svg>