<svg xmlns="http://www.w3.org/2000/svg" viewBox="0 0 32 32">
  <path d="M9 3L9 7.53125L9.4375 7.84375L13 10.21875L13 13L14.875 13L13.03125 16.75L8.375 17.4375L6.34375 17.75L7.8125 19.15625L11.1875 22.40625L10.40625 27.03125L10.0625 29.03125L11.875 28.09375L16.03125 25.90625L20.21875 28.0625L22 29L21.65625 27L20.84375 22.375L24.21875 19.125L25.65625 17.6875L23.65625 17.40625L19 16.75L17.125 13L19 13L19 10.21875L22.5625 7.84375L23 7.53125L23 3 Z M 11 5L21 5L21 6.4375L16 9.78125L11 6.4375 Z M 16 15.25L17.4375 18.125L17.65625 18.59375L18.1875 18.65625L21.34375 19.125L19.0625 21.34375L18.6875 21.6875L18.78125 22.21875L19.34375 25.34375L16.5 23.875L16.03125 23.625L15.5625 23.875L12.71875 25.375L13.25 22.21875L13.34375 21.71875L12.96875 21.34375L10.6875 19.125L13.84375 18.65625L14.34375 18.59375L14.59375 18.125Z" fill="#FBFBFB" />
</svg>