<svg xmlns="http://www.w3.org/2000/svg" viewBox="0 0 30 30">
  <path d="M15 1C14.115084 1 13.328373 1.3906671 12.779297 2L10.001953 2C9.2949531 2 8.8092656 2.7150937 9.0722656 3.3710938L10 6L20 6L20.927734 3.3710938C21.190734 2.7150937 20.705047 2 19.998047 2L17.220703 2C16.671627 1.3906671 15.884916 1 15 1 z M 10 8C10 8 3 14 3 21C3 25 6 27 8 27L15 27L22 27C24 27 27 25 27 21C27 14 20 8 20 8L10 8 z M 14 10L16 10L16 12.007812C17.86 12.050812 18.970703 12.984141 18.970703 14.494141C18.970703 15.554141 18.188109 16.476906 17.162109 16.628906L17.162109 16.753906C18.486109 16.850906 19.449219 17.849672 19.449219 19.138672C19.449219 20.888672 18.129 21.995047 16 21.998047L16 24L14 24L14 22L11.5 22L11.5 12L14 12L14 10 z M 13.59375 13.601562L13.59375 16.144531L15.166016 16.144531C16.296016 16.144531 16.912109 15.680953 16.912109 14.876953C16.912109 14.079953 16.337844 13.601563 15.339844 13.601562L13.59375 13.601562 z M 13.59375 17.558594L13.59375 20.398438L15.457031 20.398438C16.663031 20.398438 17.314453 19.892031 17.314453 18.957031C17.314453 18.042031 16.641203 17.558594 15.408203 17.558594L13.59375 17.558594 z" fill="#FBFBFB" />
</svg>