<svg xmlns="http://www.w3.org/2000/svg" viewBox="0 0 30 30">
  <path d="M13.712891 3.0078125C13.295891 3.0218125 12.900438 3.0573281 12.523438 3.1113281C12.034437 3.1823281 11.668203 3.5938906 11.658203 4.0878906L11.603516 6.90625L9.7832031 4.7832031C9.4692031 4.4162031 8.9314844 4.3143125 8.5214844 4.5703125C7.9614844 4.9203125 7.3278594 5.4155313 6.7558594 6.0195312C6.3368594 6.4615313 6.4383125 7.1834844 6.9453125 7.5214844L10.464844 9.8671875C10.788844 10.083187 11.212063 10.097766 11.539062 9.8847656C12.335062 9.3647656 13.286453 9.1045781 14.314453 9.1425781C16.255453 9.2145781 18.010234 10.532906 18.615234 12.378906C19.095234 13.842906 18.830594 15.214406 18.183594 16.316406C17.950594 16.712406 18.003125 17.212109 18.328125 17.537109L21.314453 20.523438C21.749453 20.958437 22.470937 20.903203 22.835938 20.408203C24.791937 17.760203 25.622469 14.18525 24.480469 10.53125C23.013469 5.83625 18.629891 2.8388125 13.712891 3.0078125 z M 15.980469 10.990234 A 1.0001 1.0001 0 0 0 15.292969 11.292969L13.9375 12.648438C13.080039 12.23105 12.084279 12 11.003906 12C7.5839063 12 6 14.864391 6 17.775391L6 18.628906C7.3049866 19.136467 7.9624904 19.368322 8.9824219 19.744141C8.9343466 20.442236 8.7461705 21 8 21 A 1 1 0 0 0 7 22 A 1 1 0 0 0 8 23C8 24 6.723 24 6.5 24 A 1.5 1.5 0 0 0 5 25.5 A 1.5 1.5 0 0 0 6.5 27 A 1.5 1.5 0 0 0 6.6210938 26.994141C11.008048 26.962702 12 25.375234 12 24C12 23.097 11 22.279 11 22L11 20.5C11 19.672 11.672 19 12.5 19C13.328 19 14 19.672 14 20.5L14 23C14 26 20.274 25.274 21 26C21 24.716 20.74 23.116 17 22L17 17.511719C17 16.064077 16.466695 14.799564 15.568359 13.845703L16.707031 12.707031 A 1.0001 1.0001 0 0 0 15.980469 10.990234 z M 10 16C10.6 16 11 16.4 11 17C11 17.6 10.6 18 10 18C9.4 18 9 17.6 9 17C9 16.4 9.4 16 10 16 z" fill="#FBFBFB" />
</svg>