<svg xmlns="http://www.w3.org/2000/svg" viewBox="0 0 48 48">
  <path d="M24 5.4453125C22.777221 5.4453125 21.554396 6.0311566 20.878906 7.2011719L4.4863281 35.595703C3.1365571 37.935043 4.9043785 41 7.6054688 41L40.392578 41C43.094345 41 44.863843 37.935555 43.513672 35.595703L27.121094 7.2011719C26.445604 6.0311566 25.222779 5.4453125 24 5.4453125 z M 24 8.3515625C24.194221 8.3515625 24.388927 8.4681872 24.523438 8.7011719L40.916016 37.095703C41.181811 37.559058 40.927979 38 40.392578 38L7.6054688 38C7.0692359 38 6.8156575 37.56014 7.0839844 37.095703L23.476562 8.7011719C23.611073 8.4681872 23.805779 8.3515625 24 8.3515625 z" fill="#FFFFFF" />
</svg>